
<svg width="2560" height="1562" viewBox="0 0 2560 1562" fill="none" xmlns="http://www.w3.org/2000/svg">
<path opacity="0.563035" fill-rule="evenodd" clip-rule="evenodd" d="M1071.01 -15.2699H2750.52V1439.67C2750.52 1439.67 2829 1734 2451 1317C2073 900 1655.37 1253.45 1438.72 1065.77C1222.07 878.085 1909.45 165.364 1664 31.0001C1418.55 -103.364 1071.01 -15.2699 1071.01 -15.2699Z" fill="#673AB7"/>
<path fill-rule="evenodd" clip-rule="evenodd" d="M1193 -18.2769H2641.97L2642 1364C2642 1364 2760 1641 2409 1219C2058 797 1697.15 1062.95 1510.24 903.001C1323.33 743.055 1908.76 131.507 1697 17.0001C1485.24 -97.507 1193 -18.2769 1193 -18.2769Z" fill="url(#paint0_linear_2102_60)"/>
<g opacity="0.240676">
<ellipse cx="2205.5" cy="560.5" rx="24.5" ry="24" stroke="white" stroke-width="8"/>
<ellipse cx="1975.5" cy="320.5" rx="24.5" ry="24" stroke="white" stroke-width="8"/>
<ellipse cx="2490.5" cy="55.1941" rx="39.5" ry="38.6939" stroke="white" stroke-width="8"/>
<ellipse cx="1845.5" cy="590.704" rx="14.5" ry="14.2041" stroke="white" stroke-width="8"/>
<rect x="2263.3" y="306.428" width="72" height="72" transform="rotate(-23 2263.3 306.428)" stroke="white" stroke-width="8"/>
<rect x="2237.96" y="889.375" width="42" height="42" transform="rotate(-23 2237.96 889.375)" stroke="white" stroke-width="8"/>
<rect x="1981.08" y="714.673" width="22" height="22" transform="rotate(-23 1981.08 714.673)" stroke="white" stroke-width="8"/>
<path d="M1708.86 429.755L1706.28 420.095L1708.1 419.606L1710.69 429.266L1720.3 426.689L1720.79 428.514L1711.18 431.091L1713.75 440.706L1711.93 441.195L1709.35 431.58L1699.69 434.168L1699.2 432.343L1708.86 429.755Z" fill="white"/>
<path d="M2258.86 809.755L2256.28 800.095L2258.1 799.606L2260.69 809.266L2270.3 806.689L2270.79 808.514L2261.18 811.091L2263.75 820.706L2261.93 821.195L2259.35 811.58L2249.69 814.168L2249.2 812.343L2258.86 809.755Z" fill="white"/>
<path d="M1987.83 529.158L1982.87 510.654L1986.37 509.718L1991.33 528.221L2009.74 523.286L2010.68 526.782L1992.26 531.717L1997.2 550.135L1993.7 551.072L1988.77 532.654L1970.26 537.612L1969.33 534.116L1987.83 529.158Z" fill="white"/>
<path d="M1802.31 43.8596L1796.17 20.9339L1800.5 19.7733L1806.64 42.6989L1829.46 36.5843L1830.63 40.9159L1807.81 47.0305L1813.92 69.8505L1809.59 71.0111L1803.47 48.1911L1780.55 54.3341L1779.39 50.0025L1802.31 43.8596Z" fill="white"/>
<path d="M2545.76 517.964L2536.07 481.773L2542.9 479.94L2552.6 516.132L2588.63 506.479L2590.46 513.317L2554.43 522.97L2564.09 558.995L2557.25 560.828L2547.6 524.803L2511.4 534.5L2509.57 527.662L2545.76 517.964Z" fill="white"/>
</g>
<path opacity="0.201409" fill-rule="evenodd" clip-rule="evenodd" d="M-16.0845 402.085L54.0845 355.085V449.085L-16.0845 402.085Z" stroke="#673AB7" stroke-width="13"/>
<ellipse opacity="0.203246" cx="1720.5" cy="1316.62" rx="98.5" ry="98" stroke="#00BCD4" stroke-width="21"/>
<rect opacity="0.203637" x="172" y="1297.62" width="196" height="196" rx="29" fill="#D1C4E9"/>
<path fill-rule="evenodd" clip-rule="evenodd" d="M204.074 1271.47C200.179 1270.43 196.175 1272.74 195.131 1276.63C194.088 1280.53 196.399 1284.53 200.295 1285.58C204.19 1286.62 208.194 1284.31 209.238 1280.41C210.282 1276.52 207.97 1272.51 204.074 1271.47Z" fill="#D1C4E9"/>
<path fill-rule="evenodd" clip-rule="evenodd" d="M187.674 1332.68C183.778 1331.63 179.775 1333.94 178.731 1337.84C177.687 1341.73 179.999 1345.74 183.894 1346.78C187.79 1347.83 191.794 1345.51 192.837 1341.62C193.881 1337.72 191.57 1333.72 187.674 1332.68Z" fill="#D1C4E9"/>
<path fill-rule="evenodd" clip-rule="evenodd" d="M171.274 1393.88C167.378 1392.84 163.374 1395.15 162.331 1399.05C161.287 1402.94 163.598 1406.95 167.494 1407.99C171.389 1409.03 175.393 1406.72 176.437 1402.83C177.481 1398.93 175.169 1394.93 171.274 1393.88Z" fill="#D1C4E9"/>
<path fill-rule="evenodd" clip-rule="evenodd" d="M154.873 1455.09C150.978 1454.05 146.974 1456.36 145.93 1460.25C144.886 1464.15 147.198 1468.15 151.093 1469.2C154.989 1470.24 158.993 1467.93 160.037 1464.03C161.08 1460.14 158.769 1456.13 154.873 1455.09Z" fill="#D1C4E9"/>
<path fill-rule="evenodd" clip-rule="evenodd" d="M265.282 1287.87C261.386 1286.83 257.383 1289.14 256.339 1293.03C255.295 1296.93 257.607 1300.93 261.502 1301.98C265.398 1303.02 269.402 1300.71 270.445 1296.81C271.489 1292.92 269.178 1288.91 265.282 1287.87Z" fill="#D1C4E9"/>
<path fill-rule="evenodd" clip-rule="evenodd" d="M248.882 1349.08C244.986 1348.03 240.982 1350.34 239.939 1354.24C238.895 1358.13 241.206 1362.14 245.102 1363.18C248.997 1364.23 253.001 1361.91 254.045 1358.02C255.089 1354.12 252.777 1350.12 248.882 1349.08Z" fill="#D1C4E9"/>
<path fill-rule="evenodd" clip-rule="evenodd" d="M232.481 1410.28C228.586 1409.24 224.582 1411.55 223.538 1415.45C222.494 1419.34 224.806 1423.35 228.701 1424.39C232.597 1425.43 236.601 1423.12 237.644 1419.23C238.688 1415.33 236.377 1411.33 232.481 1410.28Z" fill="#D1C4E9"/>
<path fill-rule="evenodd" clip-rule="evenodd" d="M216.081 1471.49C212.185 1470.45 208.181 1472.76 207.138 1476.65C206.094 1480.55 208.405 1484.55 212.301 1485.6C216.197 1486.64 220.2 1484.33 221.244 1480.43C222.288 1476.54 219.976 1472.53 216.081 1471.49Z" fill="#D1C4E9"/>
<path fill-rule="evenodd" clip-rule="evenodd" d="M326.489 1304.27C322.593 1303.23 318.59 1305.54 317.546 1309.43C316.502 1313.33 318.814 1317.33 322.709 1318.38C326.605 1319.42 330.609 1317.11 331.652 1313.21C332.696 1309.32 330.385 1305.31 326.489 1304.27Z" fill="#D1C4E9"/>
<path fill-rule="evenodd" clip-rule="evenodd" d="M310.089 1365.48C306.193 1364.43 302.189 1366.75 301.146 1370.64C300.102 1374.54 302.413 1378.54 306.309 1379.58C310.204 1380.63 314.208 1378.32 315.252 1374.42C316.296 1370.52 313.984 1366.52 310.089 1365.48Z" fill="#D1C4E9"/>
<path fill-rule="evenodd" clip-rule="evenodd" d="M293.688 1426.68C289.793 1425.64 285.789 1427.95 284.745 1431.85C283.701 1435.74 286.013 1439.75 289.908 1440.79C293.804 1441.83 297.808 1439.52 298.852 1435.63C299.895 1431.73 297.584 1427.73 293.688 1426.68Z" fill="#D1C4E9"/>
<path fill-rule="evenodd" clip-rule="evenodd" d="M277.288 1487.89C273.392 1486.85 269.388 1489.16 268.345 1493.05C267.301 1496.95 269.612 1500.95 273.508 1502C277.404 1503.04 281.407 1500.73 282.451 1496.83C283.495 1492.94 281.183 1488.94 277.288 1487.89Z" fill="#D1C4E9"/>
<path fill-rule="evenodd" clip-rule="evenodd" d="M387.696 1320.67C383.801 1319.63 379.797 1321.94 378.753 1325.83C377.709 1329.73 380.021 1333.73 383.916 1334.78C387.812 1335.82 391.816 1333.51 392.859 1329.61C393.903 1325.72 391.592 1321.71 387.696 1320.67Z" fill="#D1C4E9"/>
<path fill-rule="evenodd" clip-rule="evenodd" d="M371.296 1381.88C367.4 1380.83 363.396 1383.15 362.353 1387.04C361.309 1390.94 363.62 1394.94 367.516 1395.98C371.411 1397.03 375.415 1394.72 376.459 1390.82C377.503 1386.93 375.191 1382.92 371.296 1381.88Z" fill="#D1C4E9"/>
<path fill-rule="evenodd" clip-rule="evenodd" d="M354.895 1443.08C351 1442.04 346.996 1444.35 345.952 1448.25C344.908 1452.14 347.22 1456.15 351.116 1457.19C355.011 1458.23 359.015 1455.92 360.059 1452.03C361.102 1448.13 358.791 1444.13 354.895 1443.08Z" fill="#D1C4E9"/>
<path fill-rule="evenodd" clip-rule="evenodd" d="M338.495 1504.29C334.599 1503.25 330.595 1505.56 329.552 1509.46C328.508 1513.35 330.82 1517.35 334.715 1518.4C338.611 1519.44 342.614 1517.13 343.658 1513.23C344.702 1509.34 342.391 1505.34 338.495 1504.29Z" fill="#D1C4E9"/>
<defs>
<linearGradient id="paint0_linear_2102_60" x1="2678.68" y1="-2150.62" x2="615.353" y2="-187.473" gradientUnits="userSpaceOnUse">
<stop stop-color="#20659E"/>
<stop offset="1" stop-color="#32497B"/>
</linearGradient>
</defs>
</svg>
