<svg width="2560" height="3148" viewBox="0 0 2560 3148" fill="none" xmlns="http://www.w3.org/2000/svg">
<path opacity="0.05" fill-rule="evenodd" clip-rule="evenodd" d="M2765 50C2765 50 1950.03 713.44 1360.76 590.976C771.495 468.512 589.468 799.202 200.001 806C-189.465 812.798 -139.851 1434.24 -139.851 1434.24L-288.681 2763.85C-288.681 2763.85 -295.115 2487.67 200.001 2746C695.118 3004.33 1263.54 2685.41 1688 2678C2112.47 2670.59 2543.93 2935.33 2543.93 2935.33L2765 50Z" fill="#673AB7"/>
<path opacity="0.1" fill-rule="evenodd" clip-rule="evenodd" d="M2732 0C2732 0 2028.17 611.078 1438.91 488.613C849.64 366.149 528.468 722.202 139.001 729C-250.465 735.798 -61.7059 1331.88 -61.7059 1331.88L-212.999 3148C-212.999 3148 -142.115 2676.67 353.001 2935C848.118 3193.33 1327.54 2706.41 1752 2699C2176.47 2691.59 2622.08 2832.97 2622.08 2832.97L2732 0Z" fill="#D1C4E9"/>
</svg>
